<svg width="28" height="28" viewBox="0 0 28 28" fill="none" xmlns="http://www.w3.org/2000/svg">
<path fill-rule="evenodd" clip-rule="evenodd" d="M8.40013 20.5333C8.40013 21.56 9.24013 22.4 10.2668 22.4H17.7335C18.7601 22.4 19.6001 21.56 19.6001 20.5333V11.2C19.6001 10.1733 18.7601 9.33331 17.7335 9.33331H10.2668C9.24013 9.33331 8.40013 10.1733 8.40013 11.2V20.5333ZM19.6001 6.53331H17.2668L16.6041 5.87064C16.4361 5.70264 16.1935 5.59998 15.9508 5.59998H12.0495C11.8068 5.59998 11.5641 5.70264 11.3961 5.87064L10.7335 6.53331H8.40013C7.8868 6.53331 7.4668 6.95331 7.4668 7.46664C7.4668 7.97998 7.8868 8.39998 8.40013 8.39998H19.6001C20.1135 8.39998 20.5335 7.97998 20.5335 7.46664C20.5335 6.95331 20.1135 6.53331 19.6001 6.53331Z" fill="#C3CAD9"/>
</svg>
