<svg width="28" height="28" viewBox="0 0 28 28" fill="none" xmlns="http://www.w3.org/2000/svg">
<path fill-rule="evenodd" clip-rule="evenodd" d="M17.7333 13.0666C19.2827 13.0666 20.524 11.8159 20.524 10.2666C20.524 8.71722 19.2827 7.46655 17.7333 7.46655C16.184 7.46655 14.9333 8.71722 14.9333 10.2666C14.9333 11.8159 16.184 13.0666 17.7333 13.0666ZM10.2667 13.0666C11.816 13.0666 13.0573 11.8159 13.0573 10.2666C13.0573 8.71722 11.816 7.46655 10.2667 7.46655C8.71734 7.46655 7.46667 8.71722 7.46667 10.2666C7.46667 11.8159 8.71734 13.0666 10.2667 13.0666ZM10.2667 14.9332C8.092 14.9332 3.73334 16.0252 3.73334 18.1999V19.5999C3.73334 20.1132 4.15334 20.5332 4.66667 20.5332H15.8667C16.38 20.5332 16.8 20.1132 16.8 19.5999V18.1999C16.8 16.0252 12.4413 14.9332 10.2667 14.9332ZM17.7333 14.9332C17.4627 14.9332 17.1547 14.9519 16.828 14.9799C16.8467 14.9892 16.856 15.0079 16.8653 15.0172C17.9293 15.7919 18.6667 16.8279 18.6667 18.1999V19.5999C18.6667 19.9266 18.6013 20.2439 18.4987 20.5332H23.3333C23.8467 20.5332 24.2667 20.1132 24.2667 19.5999V18.1999C24.2667 16.0252 19.908 14.9332 17.7333 14.9332Z" fill="#C3CAD9"/>
</svg>
