<svg width="28" height="28" viewBox="0 0 28 28" fill="none" xmlns="http://www.w3.org/2000/svg">
<path fill-rule="evenodd" clip-rule="evenodd" d="M13.9993 4.66663C8.84735 4.66663 4.66602 8.84796 4.66602 14C4.66602 19.152 8.84735 23.3333 13.9993 23.3333C19.1513 23.3333 23.3327 19.152 23.3327 14C23.3327 8.84796 19.1513 4.66663 13.9993 4.66663ZM17.7327 14.9333H14.9327V17.7333C14.9327 18.2466 14.5127 18.6666 13.9993 18.6666C13.486 18.6666 13.066 18.2466 13.066 17.7333V14.9333H10.266C9.75268 14.9333 9.33268 14.5133 9.33268 14C9.33268 13.4866 9.75268 13.0666 10.266 13.0666H13.066V10.2666C13.066 9.75329 13.486 9.33329 13.9993 9.33329C14.5127 9.33329 14.9327 9.75329 14.9327 10.2666V13.0666H17.7327C18.246 13.0666 18.666 13.4866 18.666 14C18.666 14.5133 18.246 14.9333 17.7327 14.9333Z" fill="white" fill-opacity="0.5"/>
</svg>
